<svg id="Capa_1" data-name="Capa 1" xmlns="http://www.w3.org/2000/svg" viewBox="0 0 1366 768"><defs><style>.cls-1{fill:#7d66ef;}</style></defs><title>Galileo (Violeta)</title><path class="cls-1" d="M965.84,408.5a46.77,46.77,0,0,0,.31-5.32c0-25.68-18.77-46.49-46.48-46.49-28.06,0-46.5,21.53-46.5,46.49a46.49,46.49,0,0,0,86.19,24.19l-9.58-5.51a35.44,35.44,0,0,1-65.16-13.36Zm-81.3-10.12c2.13-16.91,15.57-30.63,35.13-30.63,19.36,0,33,13.33,35.12,30.63Z"/><path class="cls-1" d="M577.28,399.4h52c-2.41,23.84-22,39.8-48.91,39.8-15.46,0-29.45-5.55-39.39-15.62-9.69-9.82-15-23.28-15-37.92s5.3-28.06,14.93-37.91c9.85-10.08,23.63-15.63,38.78-15.63,18.63,0,35.83,9.88,43.82,25.17l.38.72,9.58-5.71-.38-.65c-10.62-18.5-31.08-30-53.4-30-36.79,0-64.53,27.52-64.53,64s28,64,65.23,64c17.68,0,32.85-5.62,43.87-16.26A53.36,53.36,0,0,0,640.3,394.6v-5.5h-63Z"/><path class="cls-1" d="M737.4,376.41c-8.07-12.57-21.37-19.72-36.9-19.72A45.85,45.85,0,0,0,668,370.05a47.18,47.18,0,0,0,0,66.26,45.81,45.81,0,0,0,32.55,13.36c15.53,0,28.83-7.15,36.9-19.72v17.8h10.47V358.62H737.4Zm-36.19,63.32a36.55,36.55,0,0,1,0-73.09c20.29,0,36.19,16.05,36.19,36.54S721.5,439.73,701.21,439.73Z"/><rect class="cls-1" x="773.32" y="318.33" width="10.29" height="129.42"/><path class="cls-1" d="M814.2,323.58a7.69,7.69,0,1,0,7.78,7.6A7.79,7.79,0,0,0,814.2,323.58Z"/><rect class="cls-1" x="809.05" y="358.62" width="10.29" height="89.13"/><rect class="cls-1" x="844.79" y="318.33" width="10.29" height="129.42"/><path class="cls-1" d="M1024.6,356.69c-26.27,0-46.84,20.42-46.84,46.49s20.57,46.49,46.84,46.49,46.66-20.42,46.66-46.49S1050.77,356.69,1024.6,356.69Zm0,83a36.55,36.55,0,0,1,0-73.09c20.3,0,36.2,16.05,36.2,36.54S1044.9,439.73,1024.6,439.73Z"/><path class="cls-1" d="M396.34,288.84a95,95,0,0,0-51.24,11.1,94.69,94.69,0,0,0-39.37-11.14,5.35,5.35,0,0,0-5.62,5.37h0a5.4,5.4,0,0,0,5.12,5.37,83.93,83.93,0,0,1,29.16,7.11,95.27,95.27,0,0,0,0,154.7,83.93,83.93,0,0,1-29.16,7.11,5.4,5.4,0,0,0-5.12,5.37h0a5.35,5.35,0,0,0,5.62,5.37,94.69,94.69,0,0,0,39.37-11.14,95.36,95.36,0,1,0,51.24-179.22ZM305.48,384a84.65,84.65,0,0,1,39.62-71.63,84.56,84.56,0,0,1,0,143.26A84.65,84.65,0,0,1,305.48,384Zm84.62,84.61a84.09,84.09,0,0,1-34.29-7.26,95.26,95.26,0,0,0,0-154.7,84.61,84.61,0,1,1,34.29,162Z"/></svg>