<svg xmlns="http://www.w3.org/2000/svg" viewBox="0 0 66 66"><rect width="66" height="66" rx="33" fill="#f60"/><path d="M42.33,17.74h0a7,7,0,0,1-1.65.68,25.33,25.33,0,0,1-6.9.92,25.31,25.31,0,0,1,.92-6.86,7.53,7.53,0,0,1,.66-1.61h0a2.36,2.36,0,1,0-4.71,0h0v0a7.75,7.75,0,0,1,.65,1.6,24.76,24.76,0,0,1,.92,6.85,25.36,25.36,0,0,1-6.91-.92,7.06,7.06,0,0,1-1.63-.67h0a2.37,2.37,0,0,0,0,4.74h0a7.27,7.27,0,0,1,1.64-.68,25.47,25.47,0,0,1,6.87-.92A20.64,20.64,0,0,1,31,27.67a3.43,3.43,0,0,1-1.81,2h0L33,57.5l3.84-27.83h0a3.44,3.44,0,0,1-1.81-2l0-.1h0a21.33,21.33,0,0,1-1.18-6.68,25.46,25.46,0,0,1,6.88.93,6.75,6.75,0,0,1,1.64.67h0a2.37,2.37,0,1,0,0-4.74Z" fill="#fff"/></svg>