<svg xmlns="http://www.w3.org/2000/svg" viewBox="0 0 508.25 86.01"><defs><style>.cls-1{fill:#003057;}</style></defs><g id="Capa_2" data-name="Capa 2"><g id="Layer_1" data-name="Layer 1"><path class="cls-1" d="M435.13,22.82A6.76,6.76,0,0,0,442,29.58,7.59,7.59,0,0,0,449.4,22a6.68,6.68,0,0,0-6.73-6.77A7.67,7.67,0,0,0,435.13,22.82Z"/><path class="cls-1" d="M293.11,42.74H306V74.29c0,5.77,2.42,9.73,8.7,9.73,6.46,0,10.86-6.48,14.72-12.52l5.65-8.93c-.36,13.52,3.86,21.18,11.39,21.18,4,0,7.9-1.44,13.64-10.09l6.55-9.92V74.29c0,5.77,2.42,9.73,8.25,9.73,6.46,0,10.86-5.76,14.71-11.8L399.42,57V74.29c0,5.77,2.43,9.73,8.71,9.73,6.46,0,10.85-5.86,14.71-11.8L436.3,51.3V74.38c0,5.77,2.42,9.74,8.7,9.74,6.46,0,10.86-5.77,14.71-11.82l3.24-5A22.6,22.6,0,0,0,485.2,84.21c11.39,0,23.05-9.83,23.05-24.34,0-16-9.24-24.7-23.05-24.7-3.24,0-5.48,1.44-5.84,2.7-.26,1,.18,1.44.9,1.53,11.48.45,14.09,6.4,14.09,20.29,0,11.44-3.23,20.37-9.06,20.37-6.82,0-9.16-8-9.16-20.55V51.93c0-2.34-1.52-4.59-4-4.59-1.53,0-2.07.36-7.27,2.79-1.88.81-2.78,4-3,7.75l-5.29,8.57c-2.16,3.33-3.5,4.68-5.21,4.68a2.51,2.51,0,0,1-2.6-2.79l.09-26.86c0-2.35-1.52-4.6-4.13-4.6-1.43,0-2.51.63-8.88,3.51l-16.15,26c-2.15,3.33-3.5,4.68-5.2,4.68a2.5,2.5,0,0,1-2.6-2.79V42.74h9.33c2.42,0,3.41-.63,7-6.49H411.9V16.78a4.21,4.21,0,0,0-4.13-4.51c-1.62,0-2.33.54-8.35,3.07V36.25h-5.29c-6,0-7,.45-7,6.49h12.29V45.8L386.51,66.36c-2.34,3.78-3.5,6.13-5.21,6.13-1.25,0-2.51-.63-2.51-2.89V55.45a4.21,4.21,0,0,0-4.13-4.51,7.06,7.06,0,0,0-2.51.54l-5.47,2.35-9.15,14.24c-2.43,3.79-4.76,4.51-5.92,4.51-2,0-3.95-1-3.95-8,0-14.24,6.19-22.08,12.2-22.08,7.09,0,8.16,3.88,10.14,3.88.63,0,1.34-.46,1.34-1.09,0-3.87-5.92-9-13.81-9-8.26,0-15.26,3.88-19.92,12.44L326.3,66.36c-2.15,3.33-3.49,4.68-5.2,4.68a2.51,2.51,0,0,1-2.6-2.79V42.74h9.33c2.42,0,3.41-.63,7-6.49H318.5V16.78a4.21,4.21,0,0,0-4.13-4.51c-1.61,0-2.33.54-8.34,3.07V36.25h-5.92C294.1,36.25,293.11,36.7,293.11,42.74Z"/><path class="cls-1" d="M0,49.59C0,73.75,13.28,86,29.07,86c11.21,0,19-8.56,24.22-18.12A22.62,22.62,0,0,0,75.36,84.21c11.58,0,23.06-8.3,23.06-24.25a23,23,0,0,0-8-17.58c4.21-.36,5.83-.9,8.79-.9,6.73,0,9.42,3.6,9.42,9.46v28a4.2,4.2,0,0,0,4.13,4.5,7.06,7.06,0,0,0,2.51-.54L121.84,80,135,54.37c1.7-3.25,2.69-4.78,4.39-4.78a2.31,2.31,0,0,1,2.42,2.61l-.08,22.09c0,5.77,2.42,9.73,8.7,9.73,6.46,0,9.06-5.31,13.46-11.89l15.7-23.35c7.44,11.81,12.29,17.22,12.29,21.54s-2.69,7.31-6.73,7.31c-5.38,0-8.44-2.8-10.68-4.33-.63-.36-1.61-1.17-2.42-1.17a1.16,1.16,0,0,0-.9.36,2,2,0,0,0-.45,1.44,4.75,4.75,0,0,0,1.53,3.34C176.74,81.68,182,84,187,84c9.42,0,17.77-6.67,17.77-17.84s-9.6-19.39-13.55-26.6c-1.26-2.34-4.67-3.33-8.52-3.33L175,42.65,161,66.36C158.89,70,158.35,71,156.56,71c-1.44,0-2.25-1.17-2.25-2.79V46.07c0-5.77-2.42-9.73-8.7-9.73-6.46,0-10.23,5.5-13.46,11.9L121.39,69.69l.27-23.17c.09-6-3-10.09-9.06-10.09l-38-.09c-4.48,0-8.88.27-8.88,4.6a5.27,5.27,0,0,0,3,4.68l11-1.89c3.32,4.06,4.85,9.11,4.85,16,0,11.44-3.86,20.37-9.07,20.37-6.28,0-9.24-11.09-9.24-20.1a26.26,26.26,0,0,1,1.35-9.11c-.72-1.8-1.89-3-5.21-3H59c-3.24,0-6.2,2.7-6.83,8.29-5.83,16-12.11,24.61-20.9,24.61-10.5,0-14.89-11.63-14.89-31.19,0-22.45,7.71-45.44,14.44-45.44,4.58,0,4.94,13.34,4.94,23.26V32a5.3,5.3,0,0,0,3.86,1.71A3.55,3.55,0,0,0,42,33l2.33-1.71c2.42-1.8,4.48-3.51,4.48-8.38C48.8,17,46.38,0,30.86,0,13.82,0,0,26.87,0,49.59Z"/><path class="cls-1" d="M291.13,83.25c-1.07-2.06-1.7-6.28-1.7-13.12V5A4.21,4.21,0,0,0,285.3.46C283.69.46,283,1,277,3.53V42.47L265.21,65.64c-1.8,3.51-2.51,4.68-4.22,4.68-1.26,0-2.33-1-2.33-2.79V40.66a4.21,4.21,0,0,0-4.13-4.5c-1.7,0-2.51.54-9.06,3.42l-13.19,26c-1.79,3.52-2.51,4.69-4.22,4.69a2.51,2.51,0,0,1-2.6-2.79v-27a4.2,4.2,0,0,0-4.13-4.5c-1,0-.89.09-10.13,3.06L213,52.29V73.48c0,5.77,2.42,9.73,8.7,9.73,6.46,0,10.23-5.5,13.46-11.89l10.77-21.46V73.57c0,5.77,2.42,9.73,8.7,9.73,6.46,0,10.23-5.5,13.46-11.9L277,53.65V68h0c0,11.84,4.25,17.89,10.23,17.89C289.37,85.91,292,84.89,291.13,83.25Z"/></g></g></svg>