<?xml version="1.0" encoding="utf-8"?>
<!-- Generator: Adobe Illustrator 25.4.1, SVG Export Plug-In . SVG Version: 6.00 Build 0)  -->
<svg version="1.1" id="Layer_1" xmlns="http://www.w3.org/2000/svg" xmlns:xlink="http://www.w3.org/1999/xlink" x="0px" y="0px"
	 viewBox="0 0 200 75" style="enable-background:new 0 0 200 75;" xml:space="preserve">
<style type="text/css">
	.st0{fill:none;stroke:#000000;stroke-miterlimit:10;}
</style>
<g>
	<g>
		<path d="M2.1,73.1H1v-8.9h5v0.9H2.1v3.3h3.7v0.9H2.1V73.1z"/>
		<path d="M16.6,64.2V70c0,1-0.3,1.8-0.9,2.4c-0.6,0.6-1.5,0.9-2.5,0.9s-1.9-0.3-2.5-0.9S9.8,71,9.8,70v-5.7h1V70
			c0,0.7,0.2,1.3,0.6,1.7c0.4,0.4,1,0.6,1.8,0.6c0.8,0,1.3-0.2,1.7-0.6c0.4-0.4,0.6-1,0.6-1.7v-5.8H16.6z"/>
		<path d="M21.3,73.1v-8.9h1v8h3.9v0.9H21.3z"/>
		<path d="M30.2,73.1v-8.9h1v8h3.9v0.9H30.2z"/>
		<path d="M44.7,73.1v-8.9h1v8.9H44.7z"/>
		<path d="M57.5,73.1h-1.2l-4.9-7.5h0c0.1,0.9,0.1,1.7,0.1,2.4v5.1h-1v-8.9h1.2l4.9,7.5h0c0-0.1,0-0.5-0.1-1.1c0-0.6,0-1,0-1.3v-5.1
			h1V73.1z"/>
		<path d="M67.4,64.2h1.1l-3.2,8.9h-1l-3.2-8.9h1.1l2.1,5.8c0.2,0.7,0.4,1.3,0.6,1.9c0.1-0.7,0.3-1.3,0.6-2L67.4,64.2z"/>
		<path d="M77.1,73.1h-5v-8.9h5v0.9h-3.9V68h3.7v0.9h-3.7v3.3h3.9V73.1z"/>
		<path d="M86.5,70.8c0,0.8-0.3,1.4-0.9,1.8s-1.3,0.7-2.3,0.7c-1.1,0-1.9-0.1-2.4-0.4v-1c0.4,0.2,0.8,0.3,1.2,0.4
			c0.4,0.1,0.9,0.1,1.3,0.1c0.7,0,1.2-0.1,1.6-0.4c0.4-0.3,0.5-0.6,0.5-1.1c0-0.3-0.1-0.6-0.2-0.8c-0.1-0.2-0.3-0.4-0.6-0.5
			c-0.3-0.2-0.7-0.4-1.3-0.6c-0.8-0.3-1.4-0.6-1.8-1.1C81.2,67.5,81,67,81,66.4c0-0.7,0.3-1.2,0.8-1.6c0.5-0.4,1.2-0.6,2.1-0.6
			c0.9,0,1.7,0.2,2.4,0.5L86,65.5c-0.7-0.3-1.5-0.5-2.1-0.5c-0.5,0-1,0.1-1.3,0.4c-0.3,0.2-0.5,0.6-0.5,1c0,0.3,0.1,0.6,0.2,0.8
			c0.1,0.2,0.3,0.4,0.6,0.5c0.3,0.2,0.7,0.3,1.2,0.5c0.9,0.3,1.6,0.7,1.9,1.1C86.3,69.7,86.5,70.2,86.5,70.8z"/>
		<path d="M93.4,73.1h-1v-8h-2.8v-0.9h6.7v0.9h-2.8V73.1z"/>
		<path d="M103.9,73.1l-3-7.9h0c0.1,0.6,0.1,1.4,0.1,2.2v5.7h-1v-8.9h1.6l2.8,7.4h0l2.9-7.4h1.5v8.9h-1v-5.7c0-0.7,0-1.4,0.1-2.1h0
			l-3.1,7.9H103.9z"/>
		<path d="M118.6,73.1h-5v-8.9h5v0.9h-3.9V68h3.7v0.9h-3.7v3.3h3.9V73.1z"/>
		<path d="M130,73.1h-1.2l-4.9-7.5h0c0.1,0.9,0.1,1.7,0.1,2.4v5.1h-1v-8.9h1.2l4.9,7.5h0c0-0.1,0-0.5-0.1-1.1c0-0.6,0-1,0-1.3v-5.1
			h1V73.1z"/>
		<path d="M137.5,73.1h-1v-8h-2.8v-0.9h6.7v0.9h-2.8V73.1z"/>
		<path d="M156.5,73.1h-1V69h-4.7v4.2h-1v-8.9h1V68h4.7v-3.8h1V73.1z"/>
		<path d="M169,68.7c0,1.4-0.4,2.6-1.1,3.4c-0.7,0.8-1.7,1.2-3,1.2c-1.3,0-2.3-0.4-3-1.2c-0.7-0.8-1.1-1.9-1.1-3.4
			c0-1.5,0.4-2.6,1.1-3.4c0.7-0.8,1.7-1.2,3.1-1.2c1.3,0,2.3,0.4,3,1.2C168.7,66.1,169,67.2,169,68.7z M161.9,68.7
			c0,1.2,0.3,2.1,0.8,2.7c0.5,0.6,1.3,0.9,2.2,0.9c1,0,1.7-0.3,2.2-0.9s0.8-1.5,0.8-2.8c0-1.2-0.3-2.1-0.8-2.7S165.9,65,165,65
			c-1,0-1.7,0.3-2.3,0.9C162.2,66.6,161.9,67.5,161.9,68.7z"/>
		<path d="M180.1,64.2V70c0,1-0.3,1.8-0.9,2.4c-0.6,0.6-1.5,0.9-2.5,0.9s-1.9-0.3-2.5-0.9s-0.9-1.4-0.9-2.4v-5.7h1V70
			c0,0.7,0.2,1.3,0.6,1.7c0.4,0.4,1,0.6,1.8,0.6c0.8,0,1.3-0.2,1.7-0.6c0.4-0.4,0.6-1,0.6-1.7v-5.8H180.1z"/>
		<path d="M189.9,70.8c0,0.8-0.3,1.4-0.9,1.8s-1.3,0.7-2.3,0.7c-1.1,0-1.9-0.1-2.4-0.4v-1c0.4,0.2,0.8,0.3,1.2,0.4
			c0.4,0.1,0.9,0.1,1.3,0.1c0.7,0,1.2-0.1,1.6-0.4c0.4-0.3,0.5-0.6,0.5-1.1c0-0.3-0.1-0.6-0.2-0.8c-0.1-0.2-0.3-0.4-0.6-0.5
			c-0.3-0.2-0.7-0.4-1.3-0.6c-0.8-0.3-1.4-0.6-1.8-1.1c-0.4-0.4-0.5-0.9-0.5-1.6c0-0.7,0.3-1.2,0.8-1.6c0.5-0.4,1.2-0.6,2.1-0.6
			c0.9,0,1.7,0.2,2.4,0.5l-0.3,0.9c-0.7-0.3-1.5-0.5-2.1-0.5c-0.5,0-1,0.1-1.3,0.4c-0.3,0.2-0.5,0.6-0.5,1c0,0.3,0.1,0.6,0.2,0.8
			c0.1,0.2,0.3,0.4,0.6,0.5c0.3,0.2,0.7,0.3,1.2,0.5c0.9,0.3,1.6,0.7,1.9,1.1C189.7,69.7,189.9,70.2,189.9,70.8z"/>
		<path d="M199.1,73.1h-5v-8.9h5v0.9h-3.9V68h3.7v0.9h-3.7v3.3h3.9V73.1z"/>
	</g>
	<g id="Grupo_557" transform="translate(0 0)">
		<g id="Grupo_556" transform="translate(0 0.001)">
			<path id="Trazado_1367" d="M8.1,29.8h8.4c3.1,0,5.9-1,5.9-4.8c0-3.6-2.4-5.2-5.8-5.2H8.1V29.8z M8.1,14.6h8
				c2.8,0,4.9-1.3,4.9-4.4c0-3.4-2.7-4.1-5.5-4.1H8.1V14.6z M0.1,0h17C24,0,28.6,2.2,28.6,9c0.1,3.2-1.8,6.3-4.9,7.6
				c4.1,1,6.9,4.9,6.6,9.1c0,7.3-6.2,10.4-12.8,10.4H0.1V0z"/>
		</g>
		<path id="Trazado_1368" d="M44.7,22h9.4L49.7,8.8h-0.1L44.7,22z M45.6,0h8.1l13.5,36.1h-8.3l-2.7-8H42.6l-2.8,8h-8L45.6,0z"/>
		<path id="Trazado_1369" d="M70.3,0h7.9v29.3h17.5v6.6H70.3V0z"/>
		<path id="Trazado_1370" d="M109.3,22h9.4l-4.5-13.2h-0.1L109.3,22z M110,0h8.1l13.5,36.1h-8.3l-2.7-8h-13.5l-2.8,8h-8L110,0z"/>
		<path id="Trazado_1371" d="M134.7,0h7.9l15,24.1h0.1V0h7.4v36.1h-7.9l-15-24.1h-0.1v24.1h-7.4V0z"/>
		<path id="Trazado_1372" d="M169.8,29.8l19.4-23.2h-17.8V0h28.4v6.3l-19.4,23.2h19.8v6.6h-30.3V29.8z"/>
	</g>
	<line class="st0" x1="0" y1="52" x2="200" y2="52"/>
</g>
</svg>
